<mxfile host="app.diagrams.net" modified="2022-01-18T10:21:06.729Z" agent="5.0 (Windows NT 10.0; Win64; x64) AppleWebKit/537.36 (KHTML, like Gecko) Chrome/97.0.4692.71 Safari/537.36 Edg/97.0.1072.62" etag="tWBB_wMHsz04JCXLN7qG" version="16.2.7" type="github">
  <diagram id="DYqZW0xFTwxt_LcaGnhP" name="Page-1">
    <mxGraphModel dx="1351" dy="794" grid="1" gridSize="10" guides="1" tooltips="1" connect="1" arrows="1" fold="1" page="1" pageScale="1" pageWidth="850" pageHeight="1100" math="1" shadow="0">
      <root>
        <mxCell id="0" />
        <mxCell id="1" parent="0" />
        <mxCell id="LdCcW5JGlVlkomm8XYQH-6" style="edgeStyle=orthogonalEdgeStyle;curved=1;rounded=1;sketch=1;orthogonalLoop=1;jettySize=auto;html=1;fontFamily=Lucida Console;" edge="1" parent="1" source="LdCcW5JGlVlkomm8XYQH-1" target="LdCcW5JGlVlkomm8XYQH-4">
          <mxGeometry relative="1" as="geometry" />
        </mxCell>
        <mxCell id="LdCcW5JGlVlkomm8XYQH-1" value="&lt;font face=&quot;Lucida Console&quot;&gt;Start&lt;/font&gt;" style="strokeWidth=2;html=1;shape=mxgraph.flowchart.start_1;whiteSpace=wrap;rounded=1;sketch=1;" vertex="1" parent="1">
          <mxGeometry x="350" y="70" width="100" height="60" as="geometry" />
        </mxCell>
        <mxCell id="LdCcW5JGlVlkomm8XYQH-4" value="Warn user that the program is case sensitive" style="rounded=0;whiteSpace=wrap;html=1;sketch=1;fontFamily=Lucida Console;" vertex="1" parent="1">
          <mxGeometry x="340" y="180" width="120" height="60" as="geometry" />
        </mxCell>
      </root>
    </mxGraphModel>
  </diagram>
</mxfile>
